<?xml version="1.0" encoding="UTF-8"?>
<svg id="Layer_2" data-name="Layer 2" xmlns="http://www.w3.org/2000/svg" xmlns:xlink="http://www.w3.org/1999/xlink" viewBox="0 0 221.46 329.17">
  <defs>
    <style>
      .cls-1 {
        fill: #fff;
      }

      .cls-1, .cls-2 {
        stroke: #5f3300;
        stroke-miterlimit: 10;
        stroke-width: 3px;
      }

      .cls-2 {
        fill: url(#linear-gradient);
      }
    </style>
    <linearGradient id="linear-gradient" x1="110.73" y1="1.5" x2="110.73" y2="326.2" gradientUnits="userSpaceOnUse">
      <stop offset="0" stop-color="#ffdfda"/>
      <stop offset=".1" stop-color="#dab6b2"/>
      <stop offset=".21" stop-color="#b7908e"/>
      <stop offset=".31" stop-color="#9c7271"/>
      <stop offset=".42" stop-color="#895d5c"/>
      <stop offset=".52" stop-color="#7d5050"/>
      <stop offset=".62" stop-color="#7a4c4c"/>
    </linearGradient>
  </defs>
  <g id="Layer_1-2" data-name="Layer 1">
    <path class="cls-2" d="M110.73,326.2l94.1-160.5C247.43,93,195.03,1.5,110.73,1.5h0C26.43,1.5-25.97,93,16.63,165.8l94.1,160.4Z"/>
    <path class="cls-1" d="M120.23,129.15c6.6-.9,12.5-4.7,16.1-10.3l38.8-60c3-4.7,2.3-10.9-1.8-14.7-4.1-3.8-10.3-4.2-14.8-.8l-56.8,42.6c-5.8,4.3-9.2,11.1-9.2,18.3l27.7,24.9ZM115.53,135.25l-27.8-25.1c-14.4.5-25.8,12.4-25.8,26.9,0,.9,0,1.9.1,2.8.4,4.2-2.4,8.7-6.7,8.7h-1.2c-4.2,0-7.7,3.4-7.7,7.7s3.4,7.7,7.7,7.7h34.6c14.9,0,26.9-12,26.9-26.9-.1-.6-.1-1.2-.1-1.8h0Z"/>
  </g>
</svg>