<?xml version="1.0" encoding="UTF-8"?>
<svg id="Layer_2" data-name="Layer 2" xmlns="http://www.w3.org/2000/svg" viewBox="0 0 218.5 324.74">
  <defs>
    <style>
      .cls-1 {
        fill: #ffdfda;
      }

      .cls-1, .cls-2 {
        stroke-width: 0px;
      }

      .cls-2 {
        fill: #7a4c4c;
      }
    </style>
  </defs>
  <g id="Layer_1-2" data-name="Layer 1">
    <path class="cls-1" d="M109.25,324.74l94.1-160.47C245.99,91.54,193.55,0,109.25,0h0C24.95,0-27.49,91.54,15.15,164.26l94.1,160.47Z"/>
    <path class="cls-2" d="M118.68,127.6c6.55-.94,12.45-4.66,16.13-10.29l38.8-60.02c3.02-4.68,2.26-10.87-1.82-14.69s-10.29-4.15-14.76-.79l-56.8,42.62c-5.76,4.32-9.17,11.06-9.21,18.26l27.67,24.91ZM113.97,133.69l-27.84-25.05c-14.35.53-25.85,12.36-25.85,26.85,0,.94.05,1.87.14,2.78.43,4.2-2.45,8.74-6.67,8.74h-1.15c-4.25,0-7.68,3.43-7.68,7.68s3.43,7.68,7.68,7.68h34.56c14.85,0,26.88-12.02,26.88-26.88,0-.6-.02-1.2-.05-1.8h-.02Z"/>
  </g>
</svg>