<?xml version="1.0" encoding="utf-8"?>
<!-- Generator: Adobe Illustrator 28.3.0, SVG Export Plug-In . SVG Version: 6.00 Build 0)  -->
<svg version="1.1" id="Layer_1" xmlns="http://www.w3.org/2000/svg" xmlns:xlink="http://www.w3.org/1999/xlink" x="0px" y="0px"
	 viewBox="0 0 512 512" style="enable-background:new 0 0 512 512;" xml:space="preserve">
<style type="text/css">
	.st0{fill:url(#SVGID_1_);stroke:#5F3300;stroke-width:3;stroke-miterlimit:10;}
	.st1{fill:#FFFFFF;stroke:#5F3300;stroke-width:3;stroke-miterlimit:10;}
	.st2{fill:url(#SVGID_00000055674647063943428770000009294479993551614636_);stroke:#5F3300;stroke-width:3;stroke-miterlimit:10;}
</style>
<linearGradient id="SVGID_1_" gradientUnits="userSpaceOnUse" x1="119.7" y1="11.5" x2="119.7" y2="336.2">
	<stop  offset="1.118836e-07" style="stop-color:#FFDFDA"/>
	<stop  offset="9.694831e-02" style="stop-color:#DAB7B3"/>
	<stop  offset="0.2058" style="stop-color:#B8908E"/>
	<stop  offset="0.3142" style="stop-color:#9D7371"/>
	<stop  offset="0.4204" style="stop-color:#8A5D5D"/>
	<stop  offset="0.5236" style="stop-color:#7E5050"/>
	<stop  offset="0.6201" style="stop-color:#7A4C4C"/>
</linearGradient>
<path class="st0" d="M119.7,336.2l94.1-160.5C256.4,103,204,11.5,119.7,11.5l0,0C35.4,11.5-17,103,25.6,175.8L119.7,336.2z"/>
<path class="st1" d="M118.6,41.2L56.9,67.7c-3.9,1.7-6,5.8-5.2,9.9s4.4,7.1,8.6,7.1v2.2c0,3.7,2.9,6.6,6.6,6.6h110.3
	c3.7,0,6.6-2.9,6.6-6.6v-2.2c4.2,0,7.8-2.9,8.6-7.1c0.8-4.1-1.3-8.2-5.2-9.9l-61.8-26.5C123.4,40.3,120.8,40.3,118.6,41.2
	L118.6,41.2z M86.8,102.2H69.2v54.1c-0.2,0.1-0.3,0.2-0.5,0.3l-13.2,8.8c-3.2,2.2-4.7,6.2-3.6,9.9c1.1,3.7,4.6,6.3,8.5,6.3h123.5
	c3.9,0,7.3-2.5,8.4-6.3c1.1-3.7-0.3-7.7-3.6-9.9l-13.2-8.8c-0.2-0.1-0.3-0.2-0.5-0.3v-54.1h-17.6v52.9h-11v-52.9h-17.6v52.9h-13.2
	v-52.9H97.9v52.9h-11L86.8,102.2L86.8,102.2z M122.1,58.1c4.9,0,8.8,3.9,8.8,8.8s-3.9,8.8-8.8,8.8s-8.8-3.9-8.8-8.8
	C113.3,62.1,117.2,58.1,122.1,58.1z"/>
<linearGradient id="SVGID_00000139271267402288753060000008040300557219618714_" gradientUnits="userSpaceOnUse" x1="365.2" y1="118.15" x2="365.2" y2="442.85">
	<stop  offset="1.118836e-07" style="stop-color:#FFDFDA"/>
	<stop  offset="9.694831e-02" style="stop-color:#DAB7B3"/>
	<stop  offset="0.2058" style="stop-color:#B8908E"/>
	<stop  offset="0.3142" style="stop-color:#9D7371"/>
	<stop  offset="0.4204" style="stop-color:#8A5D5D"/>
	<stop  offset="0.5236" style="stop-color:#7E5050"/>
	<stop  offset="0.6201" style="stop-color:#7A4C4C"/>
</linearGradient>
<path style="fill:url(#SVGID_00000139271267402288753060000008040300557219618714_);stroke:#5F3300;stroke-width:3;stroke-miterlimit:10;" d="
	M365.2,442.9l94.1-160.5c42.6-72.7-9.8-164.2-94.1-164.2l0,0c-84.3,0-136.7,91.5-94.1,164.3L365.2,442.9z"/>
<path class="st1" d="M374.7,245.8c6.6-0.9,12.5-4.7,16.1-10.3l38.8-60c3-4.7,2.3-10.9-1.8-14.7c-4.1-3.8-10.3-4.2-14.8-0.8
	l-56.8,42.6c-5.8,4.3-9.2,11.1-9.2,18.3L374.7,245.8z M370,251.9l-27.8-25.1c-14.4,0.5-25.8,12.4-25.8,26.9c0,0.9,0,1.9,0.1,2.8
	c0.4,4.2-2.4,8.7-6.7,8.7h-1.2c-4.2,0-7.7,3.4-7.7,7.7c0,4.2,3.4,7.7,7.7,7.7h34.6c14.9,0,26.9-12,26.9-26.9
	C370,253.1,370,252.5,370,251.9L370,251.9z"/>
</svg>
