<?xml version="1.0" encoding="UTF-8"?>
<svg id="Layer_2" data-name="Layer 2" xmlns="http://www.w3.org/2000/svg" xmlns:xlink="http://www.w3.org/1999/xlink" viewBox="0 0 221.46 329.17">
  <defs>
    <style>
      .cls-1 {
        fill: #fff;
      }

      .cls-1, .cls-2 {
        stroke: #5f3300;
        stroke-miterlimit: 10;
        stroke-width: 3px;
      }

      .cls-2 {
        fill: url(#linear-gradient);
      }
    </style>
    <linearGradient id="linear-gradient" x1="110.73" y1="1.5" x2="110.73" y2="326.2" gradientUnits="userSpaceOnUse">
      <stop offset="0" stop-color="#ffdfda"/>
      <stop offset=".1" stop-color="#dab6b2"/>
      <stop offset=".21" stop-color="#b7908e"/>
      <stop offset=".31" stop-color="#9c7271"/>
      <stop offset=".42" stop-color="#895d5c"/>
      <stop offset=".52" stop-color="#7d5050"/>
      <stop offset=".62" stop-color="#7a4c4c"/>
    </linearGradient>
  </defs>
  <g id="Layer_1-2" data-name="Layer 1">
    <path class="cls-2" d="M110.73,326.2l94.1-160.5C247.43,93,195.03,1.5,110.73,1.5h0C26.43,1.5-25.97,93,16.63,165.8l94.1,160.4Z"/>
    <path class="cls-1" d="M109.63,31.2l-61.7,26.5c-3.9,1.7-6,5.8-5.2,9.9s4.4,7.1,8.6,7.1v2.2c0,3.7,2.9,6.6,6.6,6.6h110.3c3.7,0,6.6-2.9,6.6-6.6v-2.2c4.2,0,7.8-2.9,8.6-7.1.8-4.1-1.3-8.2-5.2-9.9l-61.8-26.5c-2-.9-4.6-.9-6.8,0h0ZM77.83,92.2h-17.6v54.1c-.2.1-.3.2-.5.3l-13.2,8.8c-3.2,2.2-4.7,6.2-3.6,9.9,1.1,3.7,4.6,6.3,8.5,6.3h123.5c3.9,0,7.3-2.5,8.4-6.3,1.1-3.7-.3-7.7-3.6-9.9l-13.2-8.8c-.2-.1-.3-.2-.5-.3v-54.1h-17.6v52.9h-11v-52.9h-17.6v52.9h-13.2v-52.9h-17.7v52.9h-11v-52.9h-.1ZM113.13,48.1c4.9,0,8.8,3.9,8.8,8.8s-3.9,8.8-8.8,8.8-8.8-3.9-8.8-8.8c0-4.8,3.9-8.8,8.8-8.8Z"/>
  </g>
</svg>