<?xml version="1.0" encoding="UTF-8"?>
<svg id="Layer_2" data-name="Layer 2" xmlns="http://www.w3.org/2000/svg" viewBox="0 0 218.5 324.74">
  <defs>
    <style>
      .cls-1 {
        fill: #fff;
      }

      .cls-1, .cls-2 {
        stroke-width: 0px;
      }

      .cls-2 {
        fill: #7a4c4c;
      }
    </style>
  </defs>
  <g id="Layer_1-2" data-name="Layer 1">
    <path class="cls-2" d="M109.25,324.74l94.1-160.47C245.99,91.54,193.55,0,109.25,0h0C24.95,0-27.49,91.54,15.15,164.26l94.1,160.47Z"/>
    <path class="cls-1" d="M108.2,29.72l-61.75,26.47c-3.86,1.65-6.01,5.79-5.16,9.87.85,4.08,4.44,7.06,8.63,7.06v2.21c0,3.67,2.95,6.62,6.62,6.62h110.27c3.67,0,6.62-2.95,6.62-6.62v-2.21c4.19,0,7.8-2.95,8.63-7.06s-1.32-8.24-5.16-9.87l-61.75-26.47c-2.21-.94-4.74-.94-6.95,0h0ZM76.39,90.76h-17.64v54.12c-.17.08-.33.19-.5.3l-13.23,8.82c-3.23,2.15-4.69,6.18-3.56,9.9s4.58,6.26,8.46,6.26h123.51c3.89,0,7.31-2.54,8.44-6.26s-.3-7.75-3.56-9.9l-13.23-8.82c-.17-.11-.33-.19-.5-.3v-54.12h-17.62v52.93h-11.03v-52.93h-17.64v52.93h-13.23v-52.93h-17.64v52.93h-11.03v-52.93ZM111.67,46.65c4.87,0,8.82,3.95,8.82,8.82s-3.95,8.82-8.82,8.82-8.82-3.95-8.82-8.82,3.95-8.82,8.82-8.82Z"/>
  </g>
</svg>